<svg width="344" height="172" viewBox="0 0 344 172" fill="none" xmlns="http://www.w3.org/2000/svg">
<path d="M28.49 110.61H45.78V135.11C43.0733 135.997 40.3433 136.65 37.59 137.07C34.8367 137.49 31.71 137.7 28.21 137.7C23.03 137.7 18.6667 136.673 15.12 134.62C11.5733 132.52 8.86667 129.557 7 125.73C5.18 121.857 4.27 117.283 4.27 112.01C4.27 106.783 5.29667 102.257 7.35 98.43C9.40333 94.6033 12.3433 91.64 16.17 89.54C20.0433 87.3933 24.71 86.32 30.17 86.32C32.97 86.32 35.6067 86.5767 38.08 87.09C40.6 87.6033 42.9333 88.3267 45.08 89.26L42.7 94.72C40.9267 93.9267 38.92 93.25 36.68 92.69C34.4867 92.13 32.2 91.85 29.82 91.85C23.8467 91.85 19.18 93.6467 15.82 97.24C12.5067 100.833 10.85 105.757 10.85 112.01C10.85 115.977 11.48 119.5 12.74 122.58C14.0467 125.613 16.0767 127.993 18.83 129.72C21.5833 131.4 25.2 132.24 29.68 132.24C31.8733 132.24 33.74 132.123 35.28 131.89C36.82 131.657 38.22 131.377 39.48 131.05V116.21H28.49V110.61ZM101.328 111.94C101.328 117.12 100.441 121.647 98.6677 125.52C96.9411 129.347 94.3744 132.333 90.9677 134.48C87.5611 136.627 83.3377 137.7 78.2977 137.7C73.1177 137.7 68.8011 136.627 65.3477 134.48C61.9411 132.333 59.3977 129.323 57.7177 125.45C56.0377 121.577 55.1977 117.05 55.1977 111.87C55.1977 106.737 56.0377 102.257 57.7177 98.43C59.3977 94.6033 61.9411 91.6167 65.3477 89.47C68.8011 87.3233 73.1411 86.25 78.3677 86.25C83.3611 86.25 87.5611 87.3233 90.9677 89.47C94.3744 91.57 96.9411 94.5567 98.6677 98.43C100.441 102.257 101.328 106.76 101.328 111.94ZM61.8477 111.94C61.8477 118.24 63.1777 123.21 65.8377 126.85C68.4977 130.443 72.6511 132.24 78.2977 132.24C83.9911 132.24 88.1444 130.443 90.7577 126.85C93.3711 123.21 94.6777 118.24 94.6777 111.94C94.6777 105.64 93.3711 100.717 90.7577 97.17C88.1444 93.5767 84.0144 91.78 78.3677 91.78C72.7211 91.78 68.5444 93.5767 65.8377 97.17C63.1777 100.717 61.8477 105.64 61.8477 111.94ZM150.415 119.36C150.415 122.813 149.715 125.94 148.315 128.74C146.915 131.493 144.769 133.687 141.875 135.32C139.029 136.907 135.389 137.7 130.955 137.7C124.749 137.7 120.012 136.02 116.745 132.66C113.525 129.253 111.915 124.773 111.915 119.22V87.02H118.215V119.43C118.215 123.49 119.289 126.64 121.435 128.88C123.629 131.12 126.919 132.24 131.305 132.24C135.832 132.24 139.099 131.05 141.105 128.67C143.159 126.243 144.185 123.14 144.185 119.36V87.02H150.415V119.36ZM177.396 87.02C183.603 87.02 188.176 88.21 191.116 90.59C194.103 92.9233 195.596 96.47 195.596 101.23C195.596 103.89 195.106 106.107 194.126 107.88C193.146 109.653 191.886 111.077 190.346 112.15C188.853 113.177 187.266 113.993 185.586 114.6L199.306 137H191.956L179.846 116.35H169.906V137H163.606V87.02H177.396ZM177.046 92.48H169.906V111.03H177.396C181.456 111.03 184.42 110.237 186.286 108.65C188.153 107.017 189.086 104.637 189.086 101.51C189.086 98.2433 188.106 95.9333 186.146 94.58C184.186 93.18 181.153 92.48 177.046 92.48ZM229.201 137L212.751 93.18H212.471C212.611 94.6267 212.728 96.5867 212.821 99.06C212.915 101.487 212.961 104.03 212.961 106.69V137H207.151V87.02H216.461L231.861 127.97H232.141L247.821 87.02H257.061V137H250.831V106.27C250.831 103.843 250.878 101.44 250.971 99.06C251.111 96.68 251.228 94.7433 251.321 93.25H251.041L234.381 137H229.201ZM298.587 137H270.657V87.02H298.587V92.55H276.957V108.16H297.327V113.62H276.957V131.47H298.587V137ZM325.374 137H319.074V92.55H303.464V87.02H340.914V92.55H325.374V137Z" fill="#9E343A"/>
<g filter="url(#filter0_i)">
<path d="M5.71289 83V19.0156H28.125C35.8887 19.0156 41.7773 20.5098 45.791 23.498C49.8047 26.457 51.8115 30.8076 51.8115 36.5498C51.8115 39.6846 51.0059 42.4531 49.3945 44.8555C47.7832 47.2285 45.542 48.9717 42.6709 50.085C45.9521 50.9053 48.5303 52.5605 50.4053 55.0508C52.3096 57.541 53.2617 60.5879 53.2617 64.1914C53.2617 70.3438 51.2988 75.002 47.373 78.166C43.4473 81.3301 37.8516 82.9414 30.5859 83H5.71289ZM18.8965 55.1387V72.4092H30.1904C33.2959 72.4092 35.7129 71.6768 37.4414 70.2119C39.1992 68.7178 40.0781 66.667 40.0781 64.0596C40.0781 58.2002 37.0459 55.2266 30.9814 55.1387H18.8965ZM18.8965 45.8223H28.6523C35.3027 45.7051 38.6279 43.0537 38.6279 37.8682C38.6279 34.9678 37.7783 32.8877 36.0791 31.6279C34.4092 30.3389 31.7578 29.6943 28.125 29.6943H18.8965V45.8223ZM111.621 19.0156V61.1592C111.621 68.1611 109.424 73.6982 105.029 77.7705C100.664 81.8428 94.6875 83.8789 87.0996 83.8789C79.6289 83.8789 73.6963 81.9014 69.3018 77.9463C64.9072 73.9912 62.666 68.5566 62.5781 61.6426V19.0156H75.7617V61.2471C75.7617 65.4365 76.7578 68.498 78.75 70.4316C80.7715 72.3359 83.5547 73.2881 87.0996 73.2881C94.5117 73.2881 98.2764 69.3916 98.3936 61.5986V19.0156H111.621ZM146.118 59.5771H135.615V83H122.432V19.0156H146.206C153.765 19.0156 159.595 20.7002 163.696 24.0693C167.798 27.4385 169.849 32.1992 169.849 38.3516C169.849 42.7168 168.896 46.3643 166.992 49.2939C165.117 52.1943 162.261 54.5088 158.423 56.2373L172.266 82.3848V83H158.115L146.118 59.5771ZM135.615 48.8984H146.25C149.561 48.8984 152.124 48.0635 153.94 46.3936C155.757 44.6943 156.665 42.3652 156.665 39.4062C156.665 36.3887 155.801 34.0156 154.072 32.2871C152.373 30.5586 149.751 29.6943 146.206 29.6943H135.615V48.8984ZM230.537 74.9141C228.164 77.7559 224.81 79.9678 220.474 81.5498C216.138 83.1025 211.333 83.8789 206.06 83.8789C200.522 83.8789 195.659 82.6777 191.47 80.2754C187.31 77.8438 184.087 74.3281 181.802 69.7285C179.546 65.1289 178.389 59.7236 178.33 53.5127V49.1621C178.33 42.7754 179.399 37.2529 181.538 32.5947C183.706 27.9072 186.812 24.333 190.854 21.8721C194.927 19.3818 199.688 18.1367 205.137 18.1367C212.725 18.1367 218.657 19.9531 222.935 23.5859C227.212 27.1895 229.746 32.4482 230.537 39.3623H217.705C217.119 35.7002 215.815 33.0195 213.794 31.3203C211.802 29.6211 209.048 28.7715 205.532 28.7715C201.05 28.7715 197.637 30.4561 195.293 33.8252C192.949 37.1943 191.763 42.2041 191.733 48.8545V52.9414C191.733 59.6504 193.008 64.7188 195.557 68.1465C198.105 71.5742 201.841 73.2881 206.763 73.2881C211.714 73.2881 215.244 72.2334 217.354 70.124V59.0938H205.356V49.3818H230.537V74.9141ZM279.756 55.2705H254.443V72.4092H284.15V83H241.26V19.0156H284.062V29.6943H254.443V44.9434H279.756V55.2705ZM315.571 59.5771H305.068V83H291.885V19.0156H315.659C323.218 19.0156 329.048 20.7002 333.149 24.0693C337.251 27.4385 339.302 32.1992 339.302 38.3516C339.302 42.7168 338.35 46.3643 336.445 49.2939C334.57 52.1943 331.714 54.5088 327.876 56.2373L341.719 82.3848V83H327.568L315.571 59.5771ZM305.068 48.8984H315.703C319.014 48.8984 321.577 48.0635 323.394 46.3936C325.21 44.6943 326.118 42.3652 326.118 39.4062C326.118 36.3887 325.254 34.0156 323.525 32.2871C321.826 30.5586 319.204 29.6943 315.659 29.6943H305.068V48.8984Z" fill="#9E343A"/>
</g>
<path d="M5.71289 83H5.21289V83.5H5.71289V83ZM5.71289 19.0156V18.5156H5.21289V19.0156H5.71289ZM45.791 23.498L45.4924 23.8991L45.4943 23.9005L45.791 23.498ZM49.3945 44.8555L49.8082 45.1363L49.8098 45.134L49.3945 44.8555ZM42.6709 50.085L42.4901 49.6188L41.0219 50.1881L42.5496 50.57L42.6709 50.085ZM50.4053 55.0508L50.0058 55.3515L50.0081 55.3545L50.4053 55.0508ZM30.5859 83V83.5L30.59 83.5L30.5859 83ZM18.8965 55.1387V54.6387H18.3965V55.1387H18.8965ZM18.8965 72.4092H18.3965V72.9092H18.8965V72.4092ZM37.4414 70.2119L37.7647 70.5934L37.7652 70.5929L37.4414 70.2119ZM30.9814 55.1387L30.9887 54.6387H30.9814V55.1387ZM18.8965 45.8223H18.3965V46.3223H18.8965V45.8223ZM28.6523 45.8223V46.3223L28.6612 46.3222L28.6523 45.8223ZM36.0791 31.6279L35.7735 32.0238L35.7813 32.0296L36.0791 31.6279ZM18.8965 29.6943V29.1943H18.3965V29.6943H18.8965ZM6.21289 83V19.0156H5.21289V83H6.21289ZM5.71289 19.5156H28.125V18.5156H5.71289V19.5156ZM28.125 19.5156C35.8367 19.5156 41.6009 21.0018 45.4924 23.8991L46.0896 23.097C41.9537 20.0177 35.9407 18.5156 28.125 18.5156V19.5156ZM45.4943 23.9005C49.3595 26.75 51.3115 30.9389 51.3115 36.5498H52.3115C52.3115 30.6763 50.2499 26.164 46.0877 23.0956L45.4943 23.9005ZM51.3115 36.5498C51.3115 39.5941 50.5307 42.2639 48.9793 44.577L49.8098 45.134C51.481 42.6423 52.3115 39.7751 52.3115 36.5498H51.3115ZM48.9809 44.5746C47.4308 46.8574 45.2739 48.5394 42.4901 49.6188L42.8517 50.5511C45.8101 49.404 48.1356 47.5996 49.8082 45.1363L48.9809 44.5746ZM42.5496 50.57C45.7299 51.3651 48.2057 52.9608 50.0058 55.3515L50.8047 54.75C48.8548 52.1603 46.1744 50.4454 42.7922 49.5999L42.5496 50.57ZM50.0081 55.3545C51.836 57.7448 52.7617 60.6805 52.7617 64.1914H53.7617C53.7617 60.4952 52.7831 57.3372 50.8025 54.7471L50.0081 55.3545ZM52.7617 64.1914C52.7617 70.2293 50.8414 74.7285 47.0593 77.7767L47.6868 78.5553C51.7563 75.2754 53.7617 70.4582 53.7617 64.1914H52.7617ZM47.0593 77.7767C43.2527 80.8447 37.7831 82.4419 30.5819 82.5L30.59 83.5C37.92 83.4409 43.6418 81.8155 47.6868 78.5553L47.0593 77.7767ZM30.5859 82.5H5.71289V83.5H30.5859V82.5ZM18.3965 55.1387V72.4092H19.3965V55.1387H18.3965ZM18.8965 72.9092H30.1904V71.9092H18.8965V72.9092ZM30.1904 72.9092C33.3705 72.9092 35.9172 72.159 37.7647 70.5934L37.1181 69.8305C35.5085 71.1945 33.2213 71.9092 30.1904 71.9092V72.9092ZM37.7652 70.5929C39.6501 68.9907 40.5781 66.7923 40.5781 64.0596H39.5781C39.5781 66.5417 38.7483 68.4448 37.1176 69.8309L37.7652 70.5929ZM40.5781 64.0596C40.5781 61.0478 39.7978 58.6898 38.154 57.0778C36.5134 55.4688 34.0943 54.6837 30.9887 54.6387L30.9742 55.6386C33.933 55.6815 36.0623 56.4272 37.4539 57.7918C38.8423 59.1534 39.5781 61.212 39.5781 64.0596H40.5781ZM30.9814 54.6387H18.8965V55.6387H30.9814V54.6387ZM18.8965 46.3223H28.6523V45.3223H18.8965V46.3223ZM28.6612 46.3222C32.0383 46.2627 34.6604 45.5603 36.4458 44.1368C38.2535 42.6954 39.1279 40.5762 39.1279 37.8682H38.1279C38.1279 40.3457 37.3398 42.1449 35.8223 43.3549C34.2825 44.5827 31.9168 45.2647 28.6435 45.3223L28.6612 46.3222ZM39.1279 37.8682C39.1279 34.8726 38.2467 32.6125 36.3769 31.2263L35.7813 32.0296C37.3099 33.1628 38.1279 35.0629 38.1279 37.8682H39.1279ZM36.3846 31.2321C34.5836 29.8419 31.7965 29.1943 28.125 29.1943V30.1943C31.7191 30.1943 34.2348 30.8359 35.7736 32.0237L36.3846 31.2321ZM28.125 29.1943H18.8965V30.1943H28.125V29.1943ZM18.3965 29.6943V45.8223H19.3965V29.6943H18.3965ZM111.621 19.0156H112.121V18.5156H111.621V19.0156ZM105.029 77.7705L104.689 77.4038L104.688 77.4049L105.029 77.7705ZM62.5781 61.6426H62.0781L62.0782 61.6489L62.5781 61.6426ZM62.5781 19.0156V18.5156H62.0781V19.0156H62.5781ZM75.7617 19.0156H76.2617V18.5156H75.7617V19.0156ZM78.75 70.4316L78.4017 70.7905L78.4072 70.7956L78.75 70.4316ZM98.3936 61.5986L98.8936 61.6062V61.5986H98.3936ZM98.3936 19.0156V18.5156H97.8936V19.0156H98.3936ZM111.121 19.0156V61.1592H112.121V19.0156H111.121ZM111.121 61.1592C111.121 68.0476 108.964 73.4423 104.689 77.4038L105.369 78.1373C109.883 73.9542 112.121 68.2747 112.121 61.1592H111.121ZM104.688 77.4049C100.439 81.3692 94.5966 83.3789 87.0996 83.3789V84.3789C94.7784 84.3789 100.889 82.3163 105.37 78.1361L104.688 77.4049ZM87.0996 83.3789C79.7187 83.3789 73.9166 81.427 69.6362 77.5746L68.9673 78.3179C73.4759 82.3757 79.5391 84.3789 87.0996 84.3789V83.3789ZM69.6362 77.5746C65.3632 73.7289 63.1645 68.4366 63.0781 61.6362L62.0782 61.6489C62.1675 68.6767 64.4513 74.2535 68.9673 78.3179L69.6362 77.5746ZM63.0781 61.6426V19.0156H62.0781V61.6426H63.0781ZM62.5781 19.5156H75.7617V18.5156H62.5781V19.5156ZM75.2617 19.0156V61.2471H76.2617V19.0156H75.2617ZM75.2617 61.2471C75.2617 65.5036 76.2726 68.7239 78.4018 70.7904L79.0982 70.0729C77.243 68.2722 76.2617 65.3695 76.2617 61.2471H75.2617ZM78.4072 70.7956C80.545 72.8095 83.4639 73.7881 87.0996 73.7881V72.7881C83.6455 72.7881 80.998 71.8624 79.0928 70.0677L78.4072 70.7956ZM87.0996 73.7881C90.8899 73.7881 93.8347 72.7905 95.8418 70.7131C97.8445 68.6403 98.8338 65.5742 98.8935 61.6062L97.8936 61.5911C97.8361 65.416 96.8845 68.1947 95.1226 70.0183C93.365 71.8374 90.7214 72.7881 87.0996 72.7881V73.7881ZM98.8936 61.5986V19.0156H97.8936V61.5986H98.8936ZM98.3936 19.5156H111.621V18.5156H98.3936V19.5156ZM146.118 59.5771L146.563 59.3492L146.424 59.0771H146.118V59.5771ZM135.615 59.5771V59.0771H135.115V59.5771H135.615ZM135.615 83V83.5H136.115V83H135.615ZM122.432 83H121.932V83.5H122.432V83ZM122.432 19.0156V18.5156H121.932V19.0156H122.432ZM166.992 49.2939L166.573 49.0215L166.572 49.0225L166.992 49.2939ZM158.423 56.2373L158.218 55.7814L157.732 56.0003L157.981 56.4712L158.423 56.2373ZM172.266 82.3848H172.766V82.2606L172.708 82.1508L172.266 82.3848ZM172.266 83V83.5H172.766V83H172.266ZM158.115 83L157.67 83.2279L157.81 83.5H158.115V83ZM135.615 48.8984H135.115V49.3984H135.615V48.8984ZM153.94 46.3936L154.279 46.7617L154.282 46.7587L153.94 46.3936ZM154.072 32.2871L153.716 32.6376L153.719 32.6407L154.072 32.2871ZM135.615 29.6943V29.1943H135.115V29.6943H135.615ZM146.118 59.0771H135.615V60.0771H146.118V59.0771ZM135.115 59.5771V83H136.115V59.5771H135.115ZM135.615 82.5H122.432V83.5H135.615V82.5ZM122.932 83V19.0156H121.932V83H122.932ZM122.432 19.5156H146.206V18.5156H122.432V19.5156ZM146.206 19.5156C153.697 19.5156 159.398 21.1857 163.379 24.4557L164.014 23.683C159.791 20.2147 153.832 18.5156 146.206 18.5156V19.5156ZM163.379 24.4557C167.346 27.7142 169.349 32.3222 169.349 38.3516H170.349C170.349 32.0762 168.25 27.1628 164.014 23.683L163.379 24.4557ZM169.349 38.3516C169.349 42.6442 168.413 46.191 166.573 49.0215L167.411 49.5664C169.38 46.5376 170.349 42.7894 170.349 38.3516H169.349ZM166.572 49.0225C164.76 51.8259 161.987 54.0837 158.218 55.7814L158.628 56.6932C162.535 54.9339 165.474 52.5628 167.412 49.5654L166.572 49.0225ZM157.981 56.4712L171.824 82.6187L172.708 82.1508L158.865 56.0034L157.981 56.4712ZM171.766 82.3848V83H172.766V82.3848H171.766ZM172.266 82.5H158.115V83.5H172.266V82.5ZM158.56 82.7721L146.563 59.3492L145.673 59.8051L157.67 83.2279L158.56 82.7721ZM135.615 49.3984H146.25V48.3984H135.615V49.3984ZM146.25 49.3984C149.642 49.3984 152.342 48.5419 154.279 46.7616L153.602 46.0255C151.906 47.5851 149.479 48.3984 146.25 48.3984V49.3984ZM154.282 46.7587C156.219 44.9471 157.165 42.4752 157.165 39.4062H156.165C156.165 42.2553 155.295 44.4416 153.599 46.0284L154.282 46.7587ZM157.165 39.4062C157.165 36.289 156.269 33.7768 154.426 31.9336L153.719 32.6407C155.332 34.2544 156.165 36.4883 156.165 39.4062H157.165ZM154.429 31.9366C152.6 30.0758 149.823 29.1943 146.206 29.1943V30.1943C149.679 30.1943 152.147 31.0414 153.716 32.6376L154.429 31.9366ZM146.206 29.1943H135.615V30.1943H146.206V29.1943ZM135.115 29.6943V48.8984H136.115V29.6943H135.115ZM230.537 74.9141L230.921 75.2345L231.037 75.0954V74.9141H230.537ZM220.474 81.5498L220.642 82.0205L220.645 82.0195L220.474 81.5498ZM191.47 80.2754L191.217 80.7071L191.221 80.7091L191.47 80.2754ZM181.802 69.7285L181.353 69.9487L181.354 69.951L181.802 69.7285ZM178.33 53.5127H177.83L177.83 53.5174L178.33 53.5127ZM181.538 32.5947L181.084 32.3848L181.084 32.3861L181.538 32.5947ZM190.854 21.8721L191.114 22.2992L191.115 22.2986L190.854 21.8721ZM222.935 23.5859L222.611 23.967L222.612 23.9683L222.935 23.5859ZM230.537 39.3623V39.8623H231.098L231.034 39.3055L230.537 39.3623ZM217.705 39.3623L217.211 39.4413L217.279 39.8623H217.705V39.3623ZM213.794 31.3203L213.469 31.7007L213.472 31.7031L213.794 31.3203ZM191.733 48.8545L191.233 48.8523V48.8545H191.733ZM217.354 70.124L217.707 70.4776L217.854 70.3311V70.124H217.354ZM217.354 59.0938H217.854V58.5938H217.354V59.0938ZM205.356 59.0938H204.856V59.5938H205.356V59.0938ZM205.356 49.3818V48.8818H204.856V49.3818H205.356ZM230.537 49.3818H231.037V48.8818H230.537V49.3818ZM230.153 74.5936C227.849 77.353 224.576 79.5209 220.302 81.0801L220.645 82.0195C225.043 80.4147 228.479 78.1587 230.921 75.2345L230.153 74.5936ZM220.305 81.0791C216.03 82.6099 211.284 83.3789 206.06 83.3789V84.3789C211.382 84.3789 216.245 83.5952 220.642 82.0205L220.305 81.0791ZM206.06 83.3789C200.597 83.3789 195.822 82.1945 191.718 79.8416L191.221 80.7091C195.497 83.1609 200.448 84.3789 206.06 84.3789V83.3789ZM191.722 79.8437C187.652 77.4646 184.494 74.0244 182.25 69.5061L181.354 69.951C183.68 74.6319 186.967 78.2229 191.217 80.7071L191.722 79.8437ZM182.251 69.5083C180.034 64.9886 178.888 59.6598 178.83 53.508L177.83 53.5174C177.889 59.7875 179.058 65.2692 181.353 69.9487L182.251 69.5083ZM178.83 53.5127V49.1621H177.83V53.5127H178.83ZM178.83 49.1621C178.83 42.8302 179.89 37.3821 181.992 32.8033L181.084 32.3861C178.909 37.1238 177.83 42.7206 177.83 49.1621H178.83ZM181.992 32.8046C184.122 28.1986 187.164 24.7038 191.114 22.2992L190.595 21.445C186.459 23.9622 183.29 27.6159 181.084 32.3848L181.992 32.8046ZM191.115 22.2986C195.098 19.8629 199.766 18.6367 205.137 18.6367V17.6367C199.609 17.6367 194.755 18.9007 190.594 21.4455L191.115 22.2986ZM205.137 18.6367C212.648 18.6367 218.451 20.4343 222.611 23.967L223.258 23.2048C218.863 19.4719 212.801 17.6367 205.137 17.6367V18.6367ZM222.612 23.9683C226.77 27.4707 229.26 32.5994 230.04 39.4191L231.034 39.3055C230.232 32.2971 227.654 26.9082 223.257 23.2036L222.612 23.9683ZM230.537 38.8623H217.705V39.8623H230.537V38.8623ZM218.199 39.2833C217.602 35.5502 216.26 32.7403 214.116 30.9376L213.472 31.7031C215.371 33.2988 216.637 35.8502 217.211 39.4413L218.199 39.2833ZM214.118 30.9399C212.009 29.1405 209.126 28.2715 205.532 28.2715V29.2715C208.97 29.2715 211.595 30.1017 213.469 31.7007L214.118 30.9399ZM205.532 28.2715C200.904 28.2715 197.329 30.0223 194.883 33.5397L195.703 34.1107C197.944 30.8898 201.196 29.2715 205.532 29.2715V28.2715ZM194.883 33.5397C192.455 37.0291 191.263 42.1579 191.233 48.8523L192.233 48.8567C192.262 42.2503 193.443 37.3595 195.703 34.1107L194.883 33.5397ZM191.233 48.8545V52.9414H192.233V48.8545H191.233ZM191.233 52.9414C191.233 59.7007 192.515 64.8941 195.155 68.4448L195.958 67.8481C193.5 64.5434 192.233 59.6001 192.233 52.9414H191.233ZM195.155 68.4448C197.814 72.02 201.71 73.7881 206.763 73.7881V72.7881C201.971 72.7881 198.397 71.1285 195.958 67.8481L195.155 68.4448ZM206.763 73.7881C211.764 73.7881 215.458 72.7264 217.707 70.4776L217 69.7705C215.03 71.7404 211.664 72.7881 206.763 72.7881V73.7881ZM217.854 70.124V59.0938H216.854V70.124H217.854ZM217.354 58.5938H205.356V59.5938H217.354V58.5938ZM205.856 59.0938V49.3818H204.856V59.0938H205.856ZM205.356 49.8818H230.537V48.8818H205.356V49.8818ZM230.037 49.3818V74.9141H231.037V49.3818H230.037ZM279.756 55.2705V55.7705H280.256V55.2705H279.756ZM254.443 55.2705V54.7705H253.943V55.2705H254.443ZM254.443 72.4092H253.943V72.9092H254.443V72.4092ZM284.15 72.4092H284.65V71.9092H284.15V72.4092ZM284.15 83V83.5H284.65V83H284.15ZM241.26 83H240.76V83.5H241.26V83ZM241.26 19.0156V18.5156H240.76V19.0156H241.26ZM284.062 19.0156H284.562V18.5156H284.062V19.0156ZM284.062 29.6943V30.1943H284.562V29.6943H284.062ZM254.443 29.6943V29.1943H253.943V29.6943H254.443ZM254.443 44.9434H253.943V45.4434H254.443V44.9434ZM279.756 44.9434H280.256V44.4434H279.756V44.9434ZM279.756 54.7705H254.443V55.7705H279.756V54.7705ZM253.943 55.2705V72.4092H254.943V55.2705H253.943ZM254.443 72.9092H284.15V71.9092H254.443V72.9092ZM283.65 72.4092V83H284.65V72.4092H283.65ZM284.15 82.5H241.26V83.5H284.15V82.5ZM241.76 83V19.0156H240.76V83H241.76ZM241.26 19.5156H284.062V18.5156H241.26V19.5156ZM283.562 19.0156V29.6943H284.562V19.0156H283.562ZM284.062 29.1943H254.443V30.1943H284.062V29.1943ZM253.943 29.6943V44.9434H254.943V29.6943H253.943ZM254.443 45.4434H279.756V44.4434H254.443V45.4434ZM279.256 44.9434V55.2705H280.256V44.9434H279.256ZM315.571 59.5771L316.016 59.3492L315.877 59.0771H315.571V59.5771ZM305.068 59.5771V59.0771H304.568V59.5771H305.068ZM305.068 83V83.5H305.568V83H305.068ZM291.885 83H291.385V83.5H291.885V83ZM291.885 19.0156V18.5156H291.385V19.0156H291.885ZM336.445 49.2939L336.026 49.0215L336.025 49.0225L336.445 49.2939ZM327.876 56.2373L327.671 55.7814L327.185 56.0003L327.434 56.4712L327.876 56.2373ZM341.719 82.3848H342.219V82.2606L342.161 82.1508L341.719 82.3848ZM341.719 83V83.5H342.219V83H341.719ZM327.568 83L327.123 83.2279L327.263 83.5H327.568V83ZM305.068 48.8984H304.568V49.3984H305.068V48.8984ZM323.394 46.3936L323.732 46.7617L323.735 46.7587L323.394 46.3936ZM323.525 32.2871L323.169 32.6376L323.172 32.6407L323.525 32.2871ZM305.068 29.6943V29.1943H304.568V29.6943H305.068ZM315.571 59.0771H305.068V60.0771H315.571V59.0771ZM304.568 59.5771V83H305.568V59.5771H304.568ZM305.068 82.5H291.885V83.5H305.068V82.5ZM292.385 83V19.0156H291.385V83H292.385ZM291.885 19.5156H315.659V18.5156H291.885V19.5156ZM315.659 19.5156C323.15 19.5156 328.851 21.1857 332.832 24.4557L333.467 23.683C329.245 20.2147 323.285 18.5156 315.659 18.5156V19.5156ZM332.832 24.4557C336.799 27.7142 338.802 32.3222 338.802 38.3516H339.802C339.802 32.0762 337.703 27.1628 333.467 23.683L332.832 24.4557ZM338.802 38.3516C338.802 42.6442 337.866 46.191 336.026 49.0215L336.865 49.5664C338.833 46.5376 339.802 42.7894 339.802 38.3516H338.802ZM336.025 49.0225C334.213 51.8259 331.44 54.0837 327.671 55.7814L328.081 56.6932C331.988 54.9339 334.928 52.5628 336.865 49.5654L336.025 49.0225ZM327.434 56.4712L341.277 82.6187L342.161 82.1508L328.318 56.0034L327.434 56.4712ZM341.219 82.3848V83H342.219V82.3848H341.219ZM341.719 82.5H327.568V83.5H341.719V82.5ZM328.013 82.7721L316.016 59.3492L315.126 59.8051L327.123 83.2279L328.013 82.7721ZM305.068 49.3984H315.703V48.3984H305.068V49.3984ZM315.703 49.3984C319.095 49.3984 321.796 48.5419 323.732 46.7616L323.055 46.0255C321.359 47.5851 318.932 48.3984 315.703 48.3984V49.3984ZM323.735 46.7587C325.672 44.9471 326.618 42.4752 326.618 39.4062H325.618C325.618 42.2553 324.748 44.4416 323.052 46.0284L323.735 46.7587ZM326.618 39.4062C326.618 36.289 325.722 33.7768 323.879 31.9336L323.172 32.6407C324.786 34.2544 325.618 36.4883 325.618 39.4062H326.618ZM323.882 31.9366C322.053 30.0758 319.276 29.1943 315.659 29.1943V30.1943C319.132 30.1943 321.6 31.0414 323.169 32.6376L323.882 31.9366ZM315.659 29.1943H305.068V30.1943H315.659V29.1943ZM304.568 29.6943V48.8984H305.568V29.6943H304.568Z" fill="#F2F2F2"/>
<defs>
<filter id="filter0_i" x="5.21289" y="17.6367" width="337.006" height="69.7422" filterUnits="userSpaceOnUse" color-interpolation-filters="sRGB">
<feFlood flood-opacity="0" result="BackgroundImageFix"/>
<feBlend mode="normal" in="SourceGraphic" in2="BackgroundImageFix" result="shape"/>
<feColorMatrix in="SourceAlpha" type="matrix" values="0 0 0 0 0 0 0 0 0 0 0 0 0 0 0 0 0 0 127 0" result="hardAlpha"/>
<feOffset dy="3"/>
<feGaussianBlur stdDeviation="3"/>
<feComposite in2="hardAlpha" operator="arithmetic" k2="-1" k3="1"/>
<feColorMatrix type="matrix" values="0 0 0 0 0 0 0 0 0 0 0 0 0 0 0 0 0 0 0.25 0"/>
<feBlend mode="normal" in2="shape" result="effect1_innerShadow"/>
</filter>
</defs>
</svg>
