<svg width="344" height="125" viewBox="0 0 344 125" fill="none" xmlns="http://www.w3.org/2000/svg">
<path d="M28.49 96.61H45.78V121.11C43.0733 121.997 40.3433 122.65 37.59 123.07C34.8367 123.49 31.71 123.7 28.21 123.7C23.03 123.7 18.6667 122.673 15.12 120.62C11.5733 118.52 8.86667 115.557 7 111.73C5.18 107.857 4.27 103.283 4.27 98.01C4.27 92.7833 5.29667 88.2567 7.35 84.43C9.40333 80.6033 12.3433 77.64 16.17 75.54C20.0433 73.3933 24.71 72.32 30.17 72.32C32.97 72.32 35.6067 72.5767 38.08 73.09C40.6 73.6033 42.9333 74.3267 45.08 75.26L42.7 80.72C40.9267 79.9267 38.92 79.25 36.68 78.69C34.4867 78.13 32.2 77.85 29.82 77.85C23.8467 77.85 19.18 79.6467 15.82 83.24C12.5067 86.8333 10.85 91.7567 10.85 98.01C10.85 101.977 11.48 105.5 12.74 108.58C14.0467 111.613 16.0767 113.993 18.83 115.72C21.5833 117.4 25.2 118.24 29.68 118.24C31.8733 118.24 33.74 118.123 35.28 117.89C36.82 117.657 38.22 117.377 39.48 117.05V102.21H28.49V96.61ZM101.328 97.94C101.328 103.12 100.441 107.647 98.6677 111.52C96.9411 115.347 94.3744 118.333 90.9677 120.48C87.5611 122.627 83.3377 123.7 78.2977 123.7C73.1177 123.7 68.8011 122.627 65.3477 120.48C61.9411 118.333 59.3977 115.323 57.7177 111.45C56.0377 107.577 55.1977 103.05 55.1977 97.87C55.1977 92.7367 56.0377 88.2567 57.7177 84.43C59.3977 80.6033 61.9411 77.6167 65.3477 75.47C68.8011 73.3233 73.1411 72.25 78.3677 72.25C83.3611 72.25 87.5611 73.3233 90.9677 75.47C94.3744 77.57 96.9411 80.5567 98.6677 84.43C100.441 88.2567 101.328 92.76 101.328 97.94ZM61.8477 97.94C61.8477 104.24 63.1777 109.21 65.8377 112.85C68.4977 116.443 72.6511 118.24 78.2977 118.24C83.9911 118.24 88.1444 116.443 90.7577 112.85C93.3711 109.21 94.6777 104.24 94.6777 97.94C94.6777 91.64 93.3711 86.7167 90.7577 83.17C88.1444 79.5767 84.0144 77.78 78.3677 77.78C72.7211 77.78 68.5444 79.5767 65.8377 83.17C63.1777 86.7167 61.8477 91.64 61.8477 97.94ZM150.415 105.36C150.415 108.813 149.715 111.94 148.315 114.74C146.915 117.493 144.769 119.687 141.875 121.32C139.029 122.907 135.389 123.7 130.955 123.7C124.749 123.7 120.012 122.02 116.745 118.66C113.525 115.253 111.915 110.773 111.915 105.22V73.02H118.215V105.43C118.215 109.49 119.289 112.64 121.435 114.88C123.629 117.12 126.919 118.24 131.305 118.24C135.832 118.24 139.099 117.05 141.105 114.67C143.159 112.243 144.185 109.14 144.185 105.36V73.02H150.415V105.36ZM177.396 73.02C183.603 73.02 188.176 74.21 191.116 76.59C194.103 78.9233 195.596 82.47 195.596 87.23C195.596 89.89 195.106 92.1067 194.126 93.88C193.146 95.6533 191.886 97.0767 190.346 98.15C188.853 99.1767 187.266 99.9933 185.586 100.6L199.306 123H191.956L179.846 102.35H169.906V123H163.606V73.02H177.396ZM177.046 78.48H169.906V97.03H177.396C181.456 97.03 184.42 96.2367 186.286 94.65C188.153 93.0167 189.086 90.6367 189.086 87.51C189.086 84.2433 188.106 81.9333 186.146 80.58C184.186 79.18 181.153 78.48 177.046 78.48ZM229.201 123L212.751 79.18H212.471C212.611 80.6267 212.728 82.5867 212.821 85.06C212.915 87.4867 212.961 90.03 212.961 92.69V123H207.151V73.02H216.461L231.861 113.97H232.141L247.821 73.02H257.061V123H250.831V92.27C250.831 89.8433 250.878 87.44 250.971 85.06C251.111 82.68 251.228 80.7433 251.321 79.25H251.041L234.381 123H229.201ZM298.587 123H270.657V73.02H298.587V78.55H276.957V94.16H297.327V99.62H276.957V117.47H298.587V123ZM325.374 123H319.074V78.55H303.464V73.02H340.914V78.55H325.374V123Z" fill="#E0E0E0"/>
<g filter="url(#filter0_i)">
<path d="M5.88672 69V5.01562H28.2988C36.0625 5.01562 41.9512 6.50977 45.9648 9.49805C49.9785 12.457 51.9854 16.8076 51.9854 22.5498C51.9854 25.6846 51.1797 28.4531 49.5684 30.8555C47.957 33.2285 45.7158 34.9717 42.8447 36.085C46.126 36.9053 48.7041 38.5605 50.5791 41.0508C52.4834 43.541 53.4355 46.5879 53.4355 50.1914C53.4355 56.3438 51.4727 61.002 47.5469 64.166C43.6211 67.3301 38.0254 68.9414 30.7598 69H5.88672ZM19.0703 41.1387V58.4092H30.3643C33.4697 58.4092 35.8867 57.6768 37.6152 56.2119C39.373 54.7178 40.252 52.667 40.252 50.0596C40.252 44.2002 37.2197 41.2266 31.1553 41.1387H19.0703ZM19.0703 31.8223H28.8262C35.4766 31.7051 38.8018 29.0537 38.8018 23.8682C38.8018 20.9678 37.9521 18.8877 36.2529 17.6279C34.583 16.3389 31.9316 15.6943 28.2988 15.6943H19.0703V31.8223ZM111.795 5.01562V47.1592C111.795 54.1611 109.598 59.6982 105.203 63.7705C100.838 67.8428 94.8613 69.8789 87.2734 69.8789C79.8027 69.8789 73.8701 67.9014 69.4756 63.9463C65.0811 59.9912 62.8398 54.5566 62.752 47.6426V5.01562H75.9355V47.2471C75.9355 51.4365 76.9316 54.498 78.9238 56.4316C80.9453 58.3359 83.7285 59.2881 87.2734 59.2881C94.6855 59.2881 98.4502 55.3916 98.5674 47.5986V5.01562H111.795ZM146.292 45.5771H135.789V69H122.605V5.01562H146.38C153.938 5.01562 159.769 6.7002 163.87 10.0693C167.972 13.4385 170.022 18.1992 170.022 24.3516C170.022 28.7168 169.07 32.3643 167.166 35.2939C165.291 38.1943 162.435 40.5088 158.597 42.2373L172.439 68.3848V69H158.289L146.292 45.5771ZM135.789 34.8984H146.424C149.734 34.8984 152.298 34.0635 154.114 32.3936C155.931 30.6943 156.839 28.3652 156.839 25.4062C156.839 22.3887 155.975 20.0156 154.246 18.2871C152.547 16.5586 149.925 15.6943 146.38 15.6943H135.789V34.8984ZM230.711 60.9141C228.338 63.7559 224.983 65.9678 220.647 67.5498C216.312 69.1025 211.507 69.8789 206.233 69.8789C200.696 69.8789 195.833 68.6777 191.644 66.2754C187.483 63.8438 184.261 60.3281 181.976 55.7285C179.72 51.1289 178.562 45.7236 178.504 39.5127V35.1621C178.504 28.7754 179.573 23.2529 181.712 18.5947C183.88 13.9072 186.985 10.333 191.028 7.87207C195.101 5.38184 199.861 4.13672 205.311 4.13672C212.898 4.13672 218.831 5.95312 223.108 9.58594C227.386 13.1895 229.92 18.4482 230.711 25.3623H217.879C217.293 21.7002 215.989 19.0195 213.968 17.3203C211.976 15.6211 209.222 14.7715 205.706 14.7715C201.224 14.7715 197.811 16.4561 195.467 19.8252C193.123 23.1943 191.937 28.2041 191.907 34.8545V38.9414C191.907 45.6504 193.182 50.7188 195.73 54.1465C198.279 57.5742 202.015 59.2881 206.937 59.2881C211.888 59.2881 215.418 58.2334 217.527 56.124V45.0938H205.53V35.3818H230.711V60.9141ZM279.93 41.2705H254.617V58.4092H284.324V69H241.434V5.01562H284.236V15.6943H254.617V30.9434H279.93V41.2705ZM315.745 45.5771H305.242V69H292.059V5.01562H315.833C323.392 5.01562 329.222 6.7002 333.323 10.0693C337.425 13.4385 339.476 18.1992 339.476 24.3516C339.476 28.7168 338.523 32.3643 336.619 35.2939C334.744 38.1943 331.888 40.5088 328.05 42.2373L341.893 68.3848V69H327.742L315.745 45.5771ZM305.242 34.8984H315.877C319.188 34.8984 321.751 34.0635 323.567 32.3936C325.384 30.6943 326.292 28.3652 326.292 25.4062C326.292 22.3887 325.428 20.0156 323.699 18.2871C322 16.5586 319.378 15.6943 315.833 15.6943H305.242V34.8984Z" fill="#E0E0E0"/>
</g>
<path d="M5.88672 69H5.38672V69.5H5.88672V69ZM5.88672 5.01562V4.51562H5.38672V5.01562H5.88672ZM45.9648 9.49805L45.6662 9.8991L45.6681 9.9005L45.9648 9.49805ZM49.5684 30.8555L49.982 31.1363L49.9836 31.134L49.5684 30.8555ZM42.8447 36.085L42.664 35.6188L41.1957 36.1881L42.7235 36.57L42.8447 36.085ZM50.5791 41.0508L50.1797 41.3515L50.1819 41.3545L50.5791 41.0508ZM30.7598 69L30.7598 69.5L30.7638 69.5L30.7598 69ZM19.0703 41.1387V40.6387H18.5703V41.1387H19.0703ZM19.0703 58.4092H18.5703V58.9092H19.0703V58.4092ZM37.6152 56.2119L37.9385 56.5934L37.9391 56.5929L37.6152 56.2119ZM31.1553 41.1387L31.1625 40.6387H31.1553V41.1387ZM19.0703 31.8223H18.5703V32.3223H19.0703V31.8223ZM28.8262 31.8223L28.8262 32.3223L28.835 32.3222L28.8262 31.8223ZM36.2529 17.6279L35.9473 18.0238L35.9552 18.0296L36.2529 17.6279ZM19.0703 15.6943V15.1943H18.5703V15.6943H19.0703ZM6.38672 69V5.01562H5.38672V69H6.38672ZM5.88672 5.51562H28.2988V4.51562H5.88672V5.51562ZM28.2988 5.51562C36.0105 5.51562 41.7748 7.0018 45.6663 9.8991L46.2634 9.097C42.1276 6.01774 36.1145 4.51562 28.2988 4.51562V5.51562ZM45.6681 9.9005C49.5334 12.75 51.4854 16.939 51.4854 22.5498H52.4854C52.4854 16.6763 50.4237 12.164 46.2615 9.09559L45.6681 9.9005ZM51.4854 22.5498C51.4854 25.5941 50.7045 28.2639 49.1531 30.577L49.9836 31.134C51.6548 28.6423 52.4854 25.7751 52.4854 22.5498H51.4854ZM49.1547 30.5746C47.6047 32.8574 45.4477 34.5394 42.664 35.6188L43.0255 36.5511C45.9839 35.404 48.3094 33.5996 49.982 31.1363L49.1547 30.5746ZM42.7235 36.57C45.9037 37.3651 48.3796 38.9608 50.1797 41.3515L50.9785 40.75C49.0286 38.1603 46.3482 36.4454 42.966 35.5999L42.7235 36.57ZM50.1819 41.3545C52.0098 43.7448 52.9355 46.6805 52.9355 50.1914H53.9355C53.9355 46.4952 52.957 43.3372 50.9763 40.7471L50.1819 41.3545ZM52.9355 50.1914C52.9355 56.2293 51.0152 60.7285 47.2331 63.7767L47.8606 64.5553C51.9301 61.2754 53.9355 56.4582 53.9355 50.1914H52.9355ZM47.2331 63.7767C43.4265 66.8447 37.9569 68.4419 30.7557 68.5L30.7638 69.5C38.0939 69.4409 43.8156 67.8155 47.8606 64.5553L47.2331 63.7767ZM30.7598 68.5H5.88672V69.5H30.7598V68.5ZM18.5703 41.1387V58.4092H19.5703V41.1387H18.5703ZM19.0703 58.9092H30.3643V57.9092H19.0703V58.9092ZM30.3643 58.9092C33.5443 58.9092 36.0911 58.159 37.9385 56.5934L37.292 55.8305C35.6824 57.1945 33.3952 57.9092 30.3643 57.9092V58.9092ZM37.9391 56.5929C39.824 54.9907 40.752 52.7923 40.752 50.0596H39.752C39.752 52.5417 38.9221 54.4448 37.2914 55.8309L37.9391 56.5929ZM40.752 50.0596C40.752 47.0478 39.9716 44.6898 38.3279 43.0778C36.6872 41.4688 34.2682 40.6837 31.1625 40.6387L31.148 41.6386C34.1068 41.6815 36.2362 42.4272 37.6277 43.7918C39.0162 45.1534 39.752 47.212 39.752 50.0596H40.752ZM31.1553 40.6387H19.0703V41.6387H31.1553V40.6387ZM19.0703 32.3223H28.8262V31.3223H19.0703V32.3223ZM28.835 32.3222C32.2121 32.2627 34.8342 31.5603 36.6196 30.1368C38.4273 28.6954 39.3018 26.5762 39.3018 23.8682H38.3018C38.3018 26.3457 37.5136 28.1449 35.9961 29.3549C34.4563 30.5827 32.0906 31.2647 28.8174 31.3223L28.835 32.3222ZM39.3018 23.8682C39.3018 20.8726 38.4206 18.6125 36.5507 17.2263L35.9552 18.0296C37.4837 19.1628 38.3018 21.0629 38.3018 23.8682H39.3018ZM36.5585 17.2321C34.7574 15.8419 31.9703 15.1943 28.2988 15.1943V16.1943C31.8929 16.1943 34.4086 16.8359 35.9474 18.0237L36.5585 17.2321ZM28.2988 15.1943H19.0703V16.1943H28.2988V15.1943ZM18.5703 15.6943V31.8223H19.5703V15.6943H18.5703ZM111.795 5.01562H112.295V4.51562H111.795V5.01562ZM105.203 63.7705L104.863 63.4038L104.862 63.4049L105.203 63.7705ZM62.752 47.6426H62.2519L62.252 47.6489L62.752 47.6426ZM62.752 5.01562V4.51562H62.252V5.01562H62.752ZM75.9355 5.01562H76.4355V4.51562H75.9355V5.01562ZM78.9238 56.4316L78.5756 56.7905L78.581 56.7956L78.9238 56.4316ZM98.5674 47.5986L99.0674 47.6062V47.5986H98.5674ZM98.5674 5.01562V4.51562H98.0674V5.01562H98.5674ZM111.295 5.01562V47.1592H112.295V5.01562H111.295ZM111.295 47.1592C111.295 54.0476 109.138 59.4423 104.863 63.4038L105.543 64.1373C110.057 59.9542 112.295 54.2747 112.295 47.1592H111.295ZM104.862 63.4049C100.613 67.3692 94.7704 69.3789 87.2734 69.3789V70.3789C94.9523 70.3789 101.063 68.3163 105.544 64.1361L104.862 63.4049ZM87.2734 69.3789C79.8925 69.3789 74.0905 67.427 69.8101 63.5746L69.1411 64.3179C73.6498 68.3757 79.7129 70.3789 87.2734 70.3789V69.3789ZM69.8101 63.5746C65.537 59.7289 63.3384 54.4366 63.2519 47.6362L62.252 47.6489C62.3413 54.6767 64.6251 60.2535 69.1411 64.3179L69.8101 63.5746ZM63.252 47.6426V5.01562H62.252V47.6426H63.252ZM62.752 5.51562H75.9355V4.51562H62.752V5.51562ZM75.4355 5.01562V47.2471H76.4355V5.01562H75.4355ZM75.4355 47.2471C75.4355 51.5036 76.4465 54.7239 78.5756 56.7904L79.2721 56.0729C77.4168 54.2722 76.4355 51.3695 76.4355 47.2471H75.4355ZM78.581 56.7956C80.7188 58.8095 83.6377 59.7881 87.2734 59.7881V58.7881C83.8193 58.7881 81.1718 57.8624 79.2667 56.0677L78.581 56.7956ZM87.2734 59.7881C91.0637 59.7881 94.0085 58.7905 96.0156 56.7131C98.0183 54.6403 99.0077 51.5742 99.0673 47.6062L98.0674 47.5911C98.0099 51.416 97.0583 54.1947 95.2964 56.0183C93.5389 57.8374 90.8953 58.7881 87.2734 58.7881V59.7881ZM99.0674 47.5986V5.01562H98.0674V47.5986H99.0674ZM98.5674 5.51562H111.795V4.51562H98.5674V5.51562ZM146.292 45.5771L146.737 45.3492L146.598 45.0771H146.292V45.5771ZM135.789 45.5771V45.0771H135.289V45.5771H135.789ZM135.789 69V69.5H136.289V69H135.789ZM122.605 69H122.105V69.5H122.605V69ZM122.605 5.01562V4.51562H122.105V5.01562H122.605ZM167.166 35.2939L166.747 35.0215L166.746 35.0225L167.166 35.2939ZM158.597 42.2373L158.391 41.7814L157.905 42.0003L158.155 42.4712L158.597 42.2373ZM172.439 68.3848H172.939V68.2606L172.881 68.1508L172.439 68.3848ZM172.439 69V69.5H172.939V69H172.439ZM158.289 69L157.844 69.2279L157.983 69.5H158.289V69ZM135.789 34.8984H135.289V35.3984H135.789V34.8984ZM154.114 32.3936L154.453 32.7617L154.456 32.7587L154.114 32.3936ZM154.246 18.2871L153.89 18.6376L153.893 18.6407L154.246 18.2871ZM135.789 15.6943V15.1943H135.289V15.6943H135.789ZM146.292 45.0771H135.789V46.0771H146.292V45.0771ZM135.289 45.5771V69H136.289V45.5771H135.289ZM135.789 68.5H122.605V69.5H135.789V68.5ZM123.105 69V5.01562H122.105V69H123.105ZM122.605 5.51562H146.38V4.51562H122.605V5.51562ZM146.38 5.51562C153.871 5.51562 159.572 7.18567 163.553 10.4557L164.187 9.68297C159.965 6.21472 154.006 4.51562 146.38 4.51562V5.51562ZM163.553 10.4557C167.52 13.7142 169.522 18.3222 169.522 24.3516H170.522C170.522 18.0762 168.424 13.1628 164.187 9.68297L163.553 10.4557ZM169.522 24.3516C169.522 28.6442 168.587 32.191 166.747 35.0215L167.585 35.5664C169.554 32.5376 170.522 28.7894 170.522 24.3516H169.522ZM166.746 35.0225C164.934 37.8259 162.161 40.0837 158.391 41.7814L158.802 42.6932C162.708 40.9339 165.648 38.5628 167.586 35.5654L166.746 35.0225ZM158.155 42.4712L171.998 68.6187L172.881 68.1508L159.039 42.0034L158.155 42.4712ZM171.939 68.3848V69H172.939V68.3848H171.939ZM172.439 68.5H158.289V69.5H172.439V68.5ZM158.734 68.7721L146.737 45.3492L145.847 45.8051L157.844 69.2279L158.734 68.7721ZM135.789 35.3984H146.424V34.3984H135.789V35.3984ZM146.424 35.3984C149.816 35.3984 152.516 34.5419 154.453 32.7616L153.776 32.0255C152.079 33.5851 149.653 34.3984 146.424 34.3984V35.3984ZM154.456 32.7587C156.392 30.9471 157.339 28.4752 157.339 25.4062H156.339C156.339 28.2553 155.469 30.4416 153.773 32.0284L154.456 32.7587ZM157.339 25.4062C157.339 22.289 156.443 19.7768 154.6 17.9336L153.893 18.6407C155.506 20.2544 156.339 22.4883 156.339 25.4062H157.339ZM154.603 17.9366C152.773 16.0758 149.997 15.1943 146.38 15.1943V16.1943C149.853 16.1943 152.32 17.0414 153.89 18.6376L154.603 17.9366ZM146.38 15.1943H135.789V16.1943H146.38V15.1943ZM135.289 15.6943V34.8984H136.289V15.6943H135.289ZM230.711 60.9141L231.095 61.2345L231.211 61.0954V60.9141H230.711ZM220.647 67.5498L220.816 68.0205L220.819 68.0195L220.647 67.5498ZM191.644 66.2754L191.391 66.7071L191.395 66.7091L191.644 66.2754ZM181.976 55.7285L181.527 55.9487L181.528 55.951L181.976 55.7285ZM178.504 39.5127H178.004L178.004 39.5174L178.504 39.5127ZM181.712 18.5947L181.258 18.3848L181.258 18.3861L181.712 18.5947ZM191.028 7.87207L191.288 8.29917L191.289 8.29864L191.028 7.87207ZM223.108 9.58594L222.785 9.96704L222.786 9.96833L223.108 9.58594ZM230.711 25.3623V25.8623H231.271L231.208 25.3055L230.711 25.3623ZM217.879 25.3623L217.385 25.4413L217.453 25.8623H217.879V25.3623ZM213.968 17.3203L213.643 17.7007L213.646 17.7031L213.968 17.3203ZM191.907 34.8545L191.407 34.8523V34.8545H191.907ZM217.527 56.124L217.881 56.4776L218.027 56.3311V56.124H217.527ZM217.527 45.0938H218.027V44.5938H217.527V45.0938ZM205.53 45.0938H205.03V45.5938H205.53V45.0938ZM205.53 35.3818V34.8818H205.03V35.3818H205.53ZM230.711 35.3818H231.211V34.8818H230.711V35.3818ZM230.327 60.5936C228.023 63.353 224.749 65.5209 220.476 67.0801L220.819 68.0195C225.217 66.4147 228.653 64.1587 231.095 61.2345L230.327 60.5936ZM220.479 67.0791C216.204 68.6099 211.458 69.3789 206.233 69.3789V70.3789C211.556 70.3789 216.419 69.5952 220.816 68.0205L220.479 67.0791ZM206.233 69.3789C200.771 69.3789 195.996 68.1945 191.892 65.8416L191.395 66.7091C195.671 69.1609 200.622 70.3789 206.233 70.3789V69.3789ZM191.896 65.8437C187.825 63.4646 184.668 60.0244 182.423 55.5061L181.528 55.951C183.853 60.6319 187.141 64.2229 191.391 66.7071L191.896 65.8437ZM182.425 55.5083C180.208 50.9886 179.062 45.6598 179.004 39.508L178.004 39.5174C178.063 45.7875 179.232 51.2692 181.527 55.9487L182.425 55.5083ZM179.004 39.5127V35.1621H178.004V39.5127H179.004ZM179.004 35.1621C179.004 28.8302 180.064 23.3821 182.166 18.8033L181.258 18.3861C179.082 23.1238 178.004 28.7206 178.004 35.1621H179.004ZM182.166 18.8046C184.296 14.1986 187.338 10.7038 191.288 8.29917L190.768 7.44497C186.633 9.96218 183.464 13.6159 181.258 18.3848L182.166 18.8046ZM191.289 8.29864C195.272 5.86293 199.94 4.63672 205.311 4.63672V3.63672C199.783 3.63672 194.929 4.90075 190.767 7.44551L191.289 8.29864ZM205.311 4.63672C212.822 4.63672 218.625 6.43434 222.785 9.96704L223.432 9.20484C219.037 5.47191 212.975 3.63672 205.311 3.63672V4.63672ZM222.786 9.96833C226.944 13.4707 229.434 18.5994 230.214 25.4191L231.208 25.3055C230.406 18.2971 227.828 12.9082 223.431 9.20355L222.786 9.96833ZM230.711 24.8623H217.879V25.8623H230.711V24.8623ZM218.373 25.2833C217.775 21.5502 216.434 18.7403 214.289 16.9376L213.646 17.7031C215.544 19.2988 216.811 21.8502 217.385 25.4413L218.373 25.2833ZM214.292 16.9399C212.183 15.1405 209.3 14.2715 205.706 14.2715V15.2715C209.144 15.2715 211.769 16.1017 213.643 17.7007L214.292 16.9399ZM205.706 14.2715C201.078 14.2715 197.503 16.0223 195.056 19.5397L195.877 20.1107C198.118 16.8898 201.37 15.2715 205.706 15.2715V14.2715ZM195.056 19.5397C192.629 23.0291 191.437 28.1579 191.407 34.8523L192.407 34.8567C192.436 28.2503 193.617 23.3595 195.877 20.1107L195.056 19.5397ZM191.407 34.8545V38.9414H192.407V34.8545H191.407ZM191.407 38.9414C191.407 45.7007 192.689 50.8941 195.329 54.4448L196.132 53.8481C193.674 50.5434 192.407 45.6001 192.407 38.9414H191.407ZM195.329 54.4448C197.988 58.02 201.884 59.7881 206.937 59.7881V58.7881C202.145 58.7881 198.571 57.1285 196.132 53.8481L195.329 54.4448ZM206.937 59.7881C211.937 59.7881 215.632 58.7264 217.881 56.4776L217.174 55.7705C215.204 57.7404 211.838 58.7881 206.937 58.7881V59.7881ZM218.027 56.124V45.0938H217.027V56.124H218.027ZM217.527 44.5938H205.53V45.5938H217.527V44.5938ZM206.03 45.0938V35.3818H205.03V45.0938H206.03ZM205.53 35.8818H230.711V34.8818H205.53V35.8818ZM230.211 35.3818V60.9141H231.211V35.3818H230.211ZM279.93 41.2705V41.7705H280.43V41.2705H279.93ZM254.617 41.2705V40.7705H254.117V41.2705H254.617ZM254.617 58.4092H254.117V58.9092H254.617V58.4092ZM284.324 58.4092H284.824V57.9092H284.324V58.4092ZM284.324 69V69.5H284.824V69H284.324ZM241.434 69H240.934V69.5H241.434V69ZM241.434 5.01562V4.51562H240.934V5.01562H241.434ZM284.236 5.01562H284.736V4.51562H284.236V5.01562ZM284.236 15.6943V16.1943H284.736V15.6943H284.236ZM254.617 15.6943V15.1943H254.117V15.6943H254.617ZM254.617 30.9434H254.117V31.4434H254.617V30.9434ZM279.93 30.9434H280.43V30.4434H279.93V30.9434ZM279.93 40.7705H254.617V41.7705H279.93V40.7705ZM254.117 41.2705V58.4092H255.117V41.2705H254.117ZM254.617 58.9092H284.324V57.9092H254.617V58.9092ZM283.824 58.4092V69H284.824V58.4092H283.824ZM284.324 68.5H241.434V69.5H284.324V68.5ZM241.934 69V5.01562H240.934V69H241.934ZM241.434 5.51562H284.236V4.51562H241.434V5.51562ZM283.736 5.01562V15.6943H284.736V5.01562H283.736ZM284.236 15.1943H254.617V16.1943H284.236V15.1943ZM254.117 15.6943V30.9434H255.117V15.6943H254.117ZM254.617 31.4434H279.93V30.4434H254.617V31.4434ZM279.43 30.9434V41.2705H280.43V30.9434H279.43ZM315.745 45.5771L316.19 45.3492L316.051 45.0771H315.745V45.5771ZM305.242 45.5771V45.0771H304.742V45.5771H305.242ZM305.242 69V69.5H305.742V69H305.242ZM292.059 69H291.559V69.5H292.059V69ZM292.059 5.01562V4.51562H291.559V5.01562H292.059ZM336.619 35.2939L336.2 35.0215L336.199 35.0225L336.619 35.2939ZM328.05 42.2373L327.844 41.7814L327.359 42.0003L327.608 42.4712L328.05 42.2373ZM341.893 68.3848H342.393V68.2606L342.334 68.1508L341.893 68.3848ZM341.893 69V69.5H342.393V69H341.893ZM327.742 69L327.297 69.2279L327.437 69.5H327.742V69ZM305.242 34.8984H304.742V35.3984H305.242V34.8984ZM323.567 32.3936L323.906 32.7617L323.909 32.7587L323.567 32.3936ZM323.699 18.2871L323.343 18.6376L323.346 18.6407L323.699 18.2871ZM305.242 15.6943V15.1943H304.742V15.6943H305.242ZM315.745 45.0771H305.242V46.0771H315.745V45.0771ZM304.742 45.5771V69H305.742V45.5771H304.742ZM305.242 68.5H292.059V69.5H305.242V68.5ZM292.559 69V5.01562H291.559V69H292.559ZM292.059 5.51562H315.833V4.51562H292.059V5.51562ZM315.833 5.51562C323.324 5.51562 329.025 7.18567 333.006 10.4557L333.641 9.68297C329.418 6.21472 323.459 4.51562 315.833 4.51562V5.51562ZM333.006 10.4557C336.973 13.7142 338.976 18.3222 338.976 24.3516H339.976C339.976 18.0762 337.877 13.1628 333.641 9.68297L333.006 10.4557ZM338.976 24.3516C338.976 28.6442 338.04 32.191 336.2 35.0215L337.038 35.5664C339.007 32.5376 339.976 28.7894 339.976 24.3516H338.976ZM336.199 35.0225C334.387 37.8259 331.614 40.0837 327.844 41.7814L328.255 42.6932C332.161 40.9339 335.101 38.5628 337.039 35.5654L336.199 35.0225ZM327.608 42.4712L341.451 68.6187L342.334 68.1508L328.492 42.0034L327.608 42.4712ZM341.393 68.3848V69H342.393V68.3848H341.393ZM341.893 68.5H327.742V69.5H341.893V68.5ZM328.187 68.7721L316.19 45.3492L315.3 45.8051L327.297 69.2279L328.187 68.7721ZM305.242 35.3984H315.877V34.3984H305.242V35.3984ZM315.877 35.3984C319.269 35.3984 321.969 34.5419 323.906 32.7616L323.229 32.0255C321.533 33.5851 319.106 34.3984 315.877 34.3984V35.3984ZM323.909 32.7587C325.845 30.9471 326.792 28.4752 326.792 25.4062H325.792C325.792 28.2553 324.922 30.4416 323.226 32.0284L323.909 32.7587ZM326.792 25.4062C326.792 22.289 325.896 19.7768 324.053 17.9336L323.346 18.6407C324.959 20.2544 325.792 22.4883 325.792 25.4062H326.792ZM324.056 17.9366C322.227 16.0758 319.45 15.1943 315.833 15.1943V16.1943C319.306 16.1943 321.773 17.0414 323.343 18.6376L324.056 17.9366ZM315.833 15.1943H305.242V16.1943H315.833V15.1943ZM304.742 15.6943V34.8984H305.742V15.6943H304.742Z" fill="#F2F2F2"/>
<defs>
<filter id="filter0_i" x="5.38672" y="3.63672" width="337.006" height="69.7422" filterUnits="userSpaceOnUse" color-interpolation-filters="sRGB">
<feFlood flood-opacity="0" result="BackgroundImageFix"/>
<feBlend mode="normal" in="SourceGraphic" in2="BackgroundImageFix" result="shape"/>
<feColorMatrix in="SourceAlpha" type="matrix" values="0 0 0 0 0 0 0 0 0 0 0 0 0 0 0 0 0 0 127 0" result="hardAlpha"/>
<feOffset dy="3"/>
<feGaussianBlur stdDeviation="3"/>
<feComposite in2="hardAlpha" operator="arithmetic" k2="-1" k3="1"/>
<feColorMatrix type="matrix" values="0 0 0 0 0 0 0 0 0 0 0 0 0 0 0 0 0 0 0.25 0"/>
<feBlend mode="normal" in2="shape" result="effect1_innerShadow"/>
</filter>
</defs>
</svg>
